<svg width="1024" height="1024" viewBox="0 0 1024 1024" fill="none" xmlns="http://www.w3.org/2000/svg">
<g clip-path="url(#clip0_124_23)">
<path d="M736 100H288C184.17 100 100 184.17 100 288V736C100 839.83 184.17 924 288 924H736C839.83 924 924 839.83 924 736V288C924 184.17 839.83 100 736 100Z" fill="#1C1A17"/>
<path d="M259.091 771.268L267.344 741.045L244.586 732.807L228.954 756.429C228.954 756.429 237.572 777.865 228 795C228.007 795.002 239.985 776.294 259.091 771.268ZM243.802 757.4C246.603 756.347 249.832 757.548 250.989 760.071C252.156 762.593 250.827 765.497 248.025 766.55C245.224 767.602 241.995 766.401 240.838 763.878C239.661 761.346 240.991 758.442 243.802 757.4Z" fill="white"/>
<path d="M497.851 420.726C432.316 470.011 346.52 571.532 273.758 690.122L273.717 690.076L260.998 710.656L274.561 715.441L281.727 698.127C320.544 633.97 425.851 466.419 618.404 355.099C618.404 355.099 690.09 315.95 760.721 261.806C743.525 274.986 709.601 291.507 691.206 302.165C642.929 330.134 583.352 356.42 497.851 420.726Z" fill="white"/>
<path d="M264.276 596.551C249.374 644.849 250.227 681.633 255.994 691.741H265.008C289.899 644.467 409.781 473.222 484.4 419.619C561.71 364.08 621.346 331.764 671.503 308.196C689.115 299.922 707.183 288.715 723.476 277.48C743.261 263.174 763.318 247.871 780.88 232.896L729.972 263.509L752.671 231.676L709.335 272.081L737.535 228C670.822 233.519 608.912 264.124 608.912 264.124C584.145 291.061 564.198 333.913 564.198 333.913C563.507 312.486 579.333 280.04 579.333 280.04C567.639 284.936 523.208 308.206 523.208 308.206C501.475 324.737 494.724 368.204 494.724 368.204C490.592 351.059 505.037 318.007 505.037 318.007C442.436 351.069 397.721 407.389 397.721 407.389C366.77 463.096 392.219 506.563 382.585 496.157C372.951 485.75 375.023 447.794 375.023 447.794C309.67 505.345 302.799 532.886 302.799 532.886C291.795 557.375 282.161 622.883 282.161 622.883C275.969 616.758 282.161 582.477 282.161 582.477C266.337 613.091 273.908 641.861 273.908 641.861C266.346 639.405 264.276 596.551 264.276 596.551Z" fill="white"/>
<path d="M780.891 252.285C780.891 252.285 755.727 274.643 723.487 296.869C672.945 333.42 624.281 363.299 624.281 363.299C433.636 466.596 327.406 635.169 292.295 692.97H310.962C317.559 688.12 327.467 684.463 368.843 673.48C421.121 659.601 452.305 630.628 452.305 630.628C452.305 630.628 404.615 655.116 382.141 652.669C359.667 650.222 329.468 657.974 329.468 657.974C329.468 657.974 317.936 653.078 374.803 645.324C431.669 637.57 525.22 579.21 525.22 579.21C525.22 579.21 489.448 592.678 472.942 591.45C456.437 590.221 415.621 591.45 415.621 591.45C442.673 585.734 467.898 589.002 509.171 574.715C550.445 560.427 548.151 561.656 548.151 561.656C594.926 547.368 614.356 502.887 614.356 502.887C606.266 505.745 544.476 512.679 518.846 505.745C493.214 498.811 449.546 505.745 449.546 505.745C490.82 493.095 499.996 498.811 510.076 498.402C520.166 497.993 552.731 500.44 617.393 480.038C682.055 459.636 700.397 434.328 700.397 434.328L656.789 439.67C685.263 435.278 717.36 418.002 717.36 418.002C697.637 422.898 666.91 425.345 666.91 425.345C703.139 418.002 723.319 407.799 723.319 407.799C757.254 384.129 765.05 349.03 765.05 349.03C716.893 364.127 678.837 357.193 678.837 357.193C744.88 353.117 763.222 337.601 772.388 333.934C781.565 330.258 785.34 315.058 785.34 315.058C751.974 326.079 714.14 327.912 714.14 327.912C755.069 322.095 790.14 303.115 790.14 303.115V284.116C774.316 292.382 746.47 298.813 746.47 298.813L789.804 273.104C792.24 260.242 780.891 252.285 780.891 252.285Z" fill="white"/>
<path d="M246.27 725.25L272.043 734.716L276.843 724.254L251.072 714.789L246.27 725.25Z" fill="white"/>
<path d="M532.719 716.5C447.563 754.039 365.756 779.626 256.957 782.976C246.806 783.293 246.756 792.601 256.957 792.284C354.285 789.288 435.27 770.104 513.371 736.539C600.375 699.141 680.285 667.802 789.264 657.153C799.314 656.165 795.04 647.203 785.061 648.18C688.547 657.62 610.13 682.379 532.719 716.5Z" fill="white"/>
</g>
<defs>
<clipPath id="clip0_124_23">
<rect x="100" y="100" width="824" height="824" rx="224" fill="white"/>
</clipPath>
</defs>
</svg>
